<svg width="16" height="11" viewBox="0 0 16 11" fill="none" xmlns="http://www.w3.org/2000/svg">
<path  fill-rule="evenodd" clip-rule="evenodd" d="M7.99988 0.888672C4.17287 0.888672 0.95375 3.08595 0 5.61089C0.95375 8.13584 4.17287 10.3331 7.99988 10.3331C11.8269 10.3331 15.046 8.13584 16 5.61089C15.046 3.08595 11.8269 0.888672 7.99988 0.888672ZM7.99988 8.57878C6.34093 8.57878 4.99597 7.2502 4.99597 5.61089C4.99597 3.97184 6.34117 2.64301 7.99988 2.64301C9.65932 2.64301 11.004 3.97184 11.004 5.61089C11.004 7.2502 9.65932 8.57878 7.99988 8.57878ZM6.8417 5.61089C6.8417 4.97905 7.36037 4.4666 7.99988 4.4666C8.63939 4.4666 9.15805 4.97881 9.15805 5.61089C9.15805 6.24298 8.63939 6.75518 7.99988 6.75518C7.36037 6.75518 6.8417 6.24273 6.8417 5.61089Z" fill="black"/>
</svg>
