<svg width="67" height="61" viewBox="0 0 67 61" fill="none" xmlns="http://www.w3.org/2000/svg">
<path d="M33.0614 11.5607L33.5 12.3623L33.9386 11.5607C35.0238 9.5776 36.8591 6.86694 39.602 4.74563C42.4546 2.53954 45.6807 1.42578 49.2031 1.42578C59.0353 1.42578 66.5 9.4616 66.5 20.2294C66.5 26.0201 64.1823 30.9168 60.0363 35.9196C55.8776 40.9377 49.9176 46.0189 42.6817 52.1852C40.2266 54.2775 37.443 56.6497 34.5491 59.1806L34.5489 59.1807C34.2592 59.4343 33.8869 59.5742 33.5 59.5742C33.1131 59.5742 32.7408 59.4343 32.4512 59.1806L32.4509 59.1804C29.5582 56.6508 26.7753 54.2792 24.3223 52.1886L24.3199 52.1865L23.9956 52.5671L24.3199 52.1865C17.0832 46.0196 11.1228 40.938 6.9639 35.9197C2.81772 30.9168 0.5 26.0201 0.5 20.2294C0.5 9.4616 7.96471 1.42578 17.7969 1.42578C21.3193 1.42578 24.5454 2.53954 27.398 4.74563C30.1409 6.86694 31.9762 9.57748 33.0614 11.5607Z" fill="#00809C" stroke="#00809C"/>
</svg>
