<svg width="216" height="215" viewBox="0 0 216 215" fill="none" xmlns="http://www.w3.org/2000/svg">
<path d="M97.827 57.9982L114.003 29.9894L126.254 59.9236L126.461 60.4286L126.946 60.1786L155.697 45.3615L149.82 77.1674L149.721 77.704L150.264 77.756L182.462 80.8348L160.322 104.414L159.948 104.812L160.377 105.15L185.799 125.147L154.426 133.014L153.897 133.146L154.075 133.662L164.65 164.229L134.004 153.885L133.487 153.711L133.358 154.241L125.728 185.673L105.54 160.403L105.199 159.976L104.804 160.353L81.3924 182.67L78.0706 150.496L78.0146 149.954L77.4787 150.057L45.7181 156.174L60.3178 127.312L60.5641 126.825L60.0575 126.622L30.0317 114.597L57.9176 98.2101L58.3881 97.9336L58.0716 97.489L39.3136 71.1396L71.6322 72.4303L72.1775 72.4521L72.1516 71.907L70.6169 39.5991L97.1072 58.1577L97.5541 58.4708L97.827 57.9982Z" fill="white" stroke="#CCAA8B"/>
</svg>
