<svg width="160" height="157" viewBox="0 0 160 157" fill="none" xmlns="http://www.w3.org/2000/svg">
<path d="M94.9537 30.3808L122.638 13.6547L118.923 45.785L118.861 46.3272L119.406 46.3423L151.738 47.2384L131.242 72.26L130.896 72.6822L131.347 72.9898L158.062 91.2236L127.292 101.192L126.773 101.361L126.986 101.863L139.602 131.645L108.327 123.396L107.8 123.257L107.707 123.795L102.219 155.67L80.3687 131.822L80 131.42L79.6313 131.822L57.7812 155.67L52.2929 123.795L52.2003 123.257L51.6727 123.396L20.3979 131.645L33.014 101.863L33.2268 101.361L32.7077 101.192L1.93792 91.2236L28.6528 72.9898L29.1035 72.6822L28.7577 72.26L8.26204 47.2384L40.594 46.3423L41.1395 46.3272L41.0768 45.785L37.3625 13.6547L65.0463 30.3808L65.5134 30.663L65.7537 30.1731L80 1.13519L94.2463 30.1731L94.4866 30.663L94.9537 30.3808Z" fill="white" stroke="#0011A7"/>
</svg>
